<mxfile host="Electron" modified="2023-12-13T12:46:47.525Z" agent="Mozilla/5.0 (Windows NT 10.0; Win64; x64) AppleWebKit/537.36 (KHTML, like Gecko) draw.io/22.1.2 Chrome/114.0.5735.289 Electron/25.9.4 Safari/537.36" etag="M3ypKZ8Lu6NPA1sjOIC7" version="22.1.2" type="device">
  <diagram name="Página-1" id="vIb05q95AwEEab2D8oPu">
    <mxGraphModel dx="1723" dy="927" grid="1" gridSize="10" guides="1" tooltips="1" connect="1" arrows="1" fold="1" page="1" pageScale="1" pageWidth="827" pageHeight="1169" math="0" shadow="0">
      <root>
        <mxCell id="0" />
        <mxCell id="1" parent="0" />
        <mxCell id="QFyRYO7LMgXpalHDA8_H-1" value="&lt;font style=&quot;font-size: 24px;&quot;&gt;&lt;b&gt;DIAGRAMA ACTIVIDAD FAVORITO&lt;/b&gt;&lt;/font&gt;" style="text;html=1;strokeColor=none;fillColor=none;align=center;verticalAlign=middle;whiteSpace=wrap;rounded=0;" vertex="1" parent="1">
          <mxGeometry x="320" y="100" width="200" height="20" as="geometry" />
        </mxCell>
        <mxCell id="QFyRYO7LMgXpalHDA8_H-2" value="" style="ellipse;whiteSpace=wrap;html=1;aspect=fixed;fillColor=#000000;" vertex="1" parent="1">
          <mxGeometry x="390" y="1420" width="60" height="60" as="geometry" />
        </mxCell>
        <mxCell id="QFyRYO7LMgXpalHDA8_H-5" style="edgeStyle=orthogonalEdgeStyle;rounded=0;orthogonalLoop=1;jettySize=auto;html=1;entryX=0.5;entryY=0;entryDx=0;entryDy=0;" edge="1" parent="1" source="QFyRYO7LMgXpalHDA8_H-3" target="QFyRYO7LMgXpalHDA8_H-4">
          <mxGeometry relative="1" as="geometry" />
        </mxCell>
        <mxCell id="QFyRYO7LMgXpalHDA8_H-3" value="" style="ellipse;whiteSpace=wrap;html=1;aspect=fixed;" vertex="1" parent="1">
          <mxGeometry x="390" y="190" width="60" height="60" as="geometry" />
        </mxCell>
        <mxCell id="QFyRYO7LMgXpalHDA8_H-4" value="&lt;font style=&quot;font-size: 24px;&quot;&gt;LEER&lt;br&gt;APUESTAS&lt;br&gt;DEL PARTIDO&lt;/font&gt;" style="ellipse;whiteSpace=wrap;html=1;" vertex="1" parent="1">
          <mxGeometry x="305" y="310" width="230" height="110" as="geometry" />
        </mxCell>
        <mxCell id="QFyRYO7LMgXpalHDA8_H-10" style="edgeStyle=orthogonalEdgeStyle;rounded=0;orthogonalLoop=1;jettySize=auto;html=1;exitX=0.5;exitY=1;exitDx=0;exitDy=0;entryX=0.5;entryY=0;entryDx=0;entryDy=0;" edge="1" parent="1" source="QFyRYO7LMgXpalHDA8_H-6" target="QFyRYO7LMgXpalHDA8_H-11">
          <mxGeometry relative="1" as="geometry">
            <mxPoint x="412.9999999999998" y="669.9999999999998" as="targetPoint" />
          </mxGeometry>
        </mxCell>
        <mxCell id="QFyRYO7LMgXpalHDA8_H-6" value="&lt;span style=&quot;font-size: 24px;&quot;&gt;CONTAR&lt;br&gt;VECES&lt;br&gt;FAVORITO&lt;br&gt;EQUIPO 1&lt;br&gt;&lt;/span&gt;" style="ellipse;whiteSpace=wrap;html=1;" vertex="1" parent="1">
          <mxGeometry x="288" y="500" width="246" height="120" as="geometry" />
        </mxCell>
        <mxCell id="QFyRYO7LMgXpalHDA8_H-8" value="SÍ" style="edgeStyle=orthogonalEdgeStyle;rounded=0;orthogonalLoop=1;jettySize=auto;html=1;" edge="1" parent="1" target="QFyRYO7LMgXpalHDA8_H-9">
          <mxGeometry relative="1" as="geometry">
            <mxPoint x="200" y="859.9999999999998" as="targetPoint" />
            <mxPoint x="343.0000000000002" y="750.0000000000002" as="sourcePoint" />
            <Array as="points">
              <mxPoint x="210" y="750" />
            </Array>
          </mxGeometry>
        </mxCell>
        <mxCell id="QFyRYO7LMgXpalHDA8_H-11" value="&lt;span style=&quot;font-size: 24px;&quot;&gt;CONTAR&lt;br&gt;VECES&lt;br&gt;FAVORITO&lt;br&gt;EQUIPO 2&lt;br&gt;&lt;/span&gt;" style="ellipse;whiteSpace=wrap;html=1;" vertex="1" parent="1">
          <mxGeometry x="285" y="690" width="250" height="120" as="geometry" />
        </mxCell>
        <mxCell id="QFyRYO7LMgXpalHDA8_H-12" style="edgeStyle=orthogonalEdgeStyle;rounded=0;orthogonalLoop=1;jettySize=auto;html=1;entryX=0.539;entryY=0.001;entryDx=0;entryDy=0;entryPerimeter=0;" edge="1" parent="1" source="QFyRYO7LMgXpalHDA8_H-4" target="QFyRYO7LMgXpalHDA8_H-6">
          <mxGeometry relative="1" as="geometry" />
        </mxCell>
        <mxCell id="QFyRYO7LMgXpalHDA8_H-17" value="&lt;font style=&quot;font-size: 24px;&quot;&gt;Sí&lt;/font&gt;" style="edgeStyle=orthogonalEdgeStyle;rounded=0;orthogonalLoop=1;jettySize=auto;html=1;" edge="1" parent="1" source="QFyRYO7LMgXpalHDA8_H-15">
          <mxGeometry relative="1" as="geometry">
            <mxPoint x="130" y="1129.9999999999998" as="targetPoint" />
          </mxGeometry>
        </mxCell>
        <mxCell id="QFyRYO7LMgXpalHDA8_H-19" value="&lt;font style=&quot;font-size: 24px;&quot;&gt;NO&lt;/font&gt;" style="edgeStyle=orthogonalEdgeStyle;rounded=0;orthogonalLoop=1;jettySize=auto;html=1;entryX=0.5;entryY=0;entryDx=0;entryDy=0;" edge="1" parent="1" source="QFyRYO7LMgXpalHDA8_H-15" target="QFyRYO7LMgXpalHDA8_H-21">
          <mxGeometry relative="1" as="geometry">
            <mxPoint x="690" y="1050" as="targetPoint" />
          </mxGeometry>
        </mxCell>
        <mxCell id="QFyRYO7LMgXpalHDA8_H-15" value="&lt;font style=&quot;font-size: 24px;&quot;&gt;NVECES FAV1 &amp;gt; NVECES FAV 2&lt;/font&gt;" style="rhombus;whiteSpace=wrap;html=1;" vertex="1" parent="1">
          <mxGeometry x="316" y="890" width="190" height="190" as="geometry" />
        </mxCell>
        <mxCell id="QFyRYO7LMgXpalHDA8_H-16" style="edgeStyle=orthogonalEdgeStyle;rounded=0;orthogonalLoop=1;jettySize=auto;html=1;entryX=0.507;entryY=-0.04;entryDx=0;entryDy=0;entryPerimeter=0;" edge="1" parent="1" source="QFyRYO7LMgXpalHDA8_H-11" target="QFyRYO7LMgXpalHDA8_H-15">
          <mxGeometry relative="1" as="geometry" />
        </mxCell>
        <mxCell id="QFyRYO7LMgXpalHDA8_H-26" style="edgeStyle=orthogonalEdgeStyle;rounded=0;orthogonalLoop=1;jettySize=auto;html=1;exitX=0.5;exitY=1;exitDx=0;exitDy=0;" edge="1" parent="1" source="QFyRYO7LMgXpalHDA8_H-18" target="QFyRYO7LMgXpalHDA8_H-2">
          <mxGeometry relative="1" as="geometry">
            <Array as="points">
              <mxPoint x="160" y="1450" />
            </Array>
          </mxGeometry>
        </mxCell>
        <mxCell id="QFyRYO7LMgXpalHDA8_H-18" value="&lt;span style=&quot;font-size: 24px;&quot;&gt;FAVORITO ES 1&lt;br&gt;&lt;/span&gt;" style="ellipse;whiteSpace=wrap;html=1;" vertex="1" parent="1">
          <mxGeometry x="35" y="1130" width="250" height="120" as="geometry" />
        </mxCell>
        <mxCell id="QFyRYO7LMgXpalHDA8_H-28" style="edgeStyle=orthogonalEdgeStyle;rounded=0;orthogonalLoop=1;jettySize=auto;html=1;entryX=1;entryY=0.5;entryDx=0;entryDy=0;exitX=0.5;exitY=1;exitDx=0;exitDy=0;" edge="1" parent="1" source="QFyRYO7LMgXpalHDA8_H-20" target="QFyRYO7LMgXpalHDA8_H-2">
          <mxGeometry relative="1" as="geometry" />
        </mxCell>
        <mxCell id="QFyRYO7LMgXpalHDA8_H-20" value="&lt;span style=&quot;font-size: 24px;&quot;&gt;FAVORITO ES 2&lt;br&gt;&lt;/span&gt;" style="ellipse;whiteSpace=wrap;html=1;" vertex="1" parent="1">
          <mxGeometry x="560" y="1280" width="250" height="120" as="geometry" />
        </mxCell>
        <mxCell id="QFyRYO7LMgXpalHDA8_H-22" value="&lt;font style=&quot;font-size: 24px;&quot;&gt;sí&lt;/font&gt;" style="edgeStyle=orthogonalEdgeStyle;rounded=0;orthogonalLoop=1;jettySize=auto;html=1;" edge="1" parent="1" source="QFyRYO7LMgXpalHDA8_H-21" target="QFyRYO7LMgXpalHDA8_H-20">
          <mxGeometry relative="1" as="geometry" />
        </mxCell>
        <mxCell id="QFyRYO7LMgXpalHDA8_H-25" style="edgeStyle=orthogonalEdgeStyle;rounded=0;orthogonalLoop=1;jettySize=auto;html=1;" edge="1" parent="1" source="QFyRYO7LMgXpalHDA8_H-21" target="QFyRYO7LMgXpalHDA8_H-24">
          <mxGeometry relative="1" as="geometry" />
        </mxCell>
        <mxCell id="QFyRYO7LMgXpalHDA8_H-21" value="&lt;font style=&quot;font-size: 24px;&quot;&gt;NVECES FAV1 != NVECES FAV 2&lt;/font&gt;" style="rhombus;whiteSpace=wrap;html=1;" vertex="1" parent="1">
          <mxGeometry x="590" y="1010" width="190" height="190" as="geometry" />
        </mxCell>
        <mxCell id="QFyRYO7LMgXpalHDA8_H-24" value="&lt;span style=&quot;font-size: 24px;&quot;&gt;NO HAY&lt;br&gt;FAVORITO&lt;br&gt;&lt;/span&gt;" style="ellipse;whiteSpace=wrap;html=1;" vertex="1" parent="1">
          <mxGeometry x="310" y="1210" width="250" height="120" as="geometry" />
        </mxCell>
        <mxCell id="QFyRYO7LMgXpalHDA8_H-27" style="edgeStyle=orthogonalEdgeStyle;rounded=0;orthogonalLoop=1;jettySize=auto;html=1;entryX=0.75;entryY=0;entryDx=0;entryDy=0;entryPerimeter=0;" edge="1" parent="1" source="QFyRYO7LMgXpalHDA8_H-24" target="QFyRYO7LMgXpalHDA8_H-2">
          <mxGeometry relative="1" as="geometry" />
        </mxCell>
      </root>
    </mxGraphModel>
  </diagram>
</mxfile>
